<svg width="778" height="778" viewBox="0 0 778 778" fill="none" xmlns="http://www.w3.org/2000/svg">
<circle cx="389" cy="389" r="388" fill="#FFF9F6" stroke="white" stroke-width="2"/>
<g clip-path="url(#clip0_245_3795)">
<path d="M280.301 272.611C280.301 272.611 299.686 246.383 309.788 225.073C321.802 199.664 326.443 185.731 329.447 166.06C331.085 155.132 337.638 156.498 340.095 167.153C342.552 177.535 342.552 186.277 342.552 186.277C342.552 186.277 347.74 171.251 350.743 174.803C353.747 178.354 354.839 195.84 354.839 195.84C354.839 195.84 362.211 181.086 364.122 193.107C366.033 205.129 363.576 207.861 363.576 207.861C363.576 207.861 370.129 200.484 371.494 206.768C373.132 213.052 368.49 225.346 368.49 225.346C368.49 225.346 337.911 243.105 325.624 252.12C302.689 268.513 293.133 279.441 293.133 279.441L280.301 272.611Z" fill="white"/>
<path d="M572.447 158.957C561.525 167.7 550.877 173.164 550.877 173.164C550.877 173.164 562.89 155.132 564.256 126.992C565.075 112.238 553.88 127.811 544.324 131.636C551.969 117.702 546.235 89.2888 540.502 97.7583C532.311 109.506 523.301 117.156 523.301 117.156C523.301 117.156 525.758 108.14 521.935 90.3817C518.113 72.6231 512.925 78.6337 504.461 100.764C495.997 122.893 459.138 174.53 430.469 195.567C398.798 218.789 353.201 243.651 319.618 269.606C301.325 283.813 284.397 310.587 275.387 306.216C283.305 299.386 287.673 284.906 287.673 284.906C287.673 284.906 269.38 277.529 243.442 256.765C217.504 236.001 196.207 238.46 185.013 248.296C174.091 258.131 175.184 274.524 177.095 281.9C174.911 286.818 175.457 290.097 174.637 291.736C173.272 293.648 171.088 304.85 174.637 301.025C178.187 297.2 189.654 296.107 193.477 289.823C190.746 284.906 190.746 280.808 190.746 280.808C190.746 280.808 192.658 285.725 198.118 288.184C206.036 290.643 217.777 312.5 222.145 343.919C223.783 355.94 222.691 381.621 242.623 414.133C260.643 443.366 289.857 448.011 314.43 455.934C338.73 463.857 346.375 469.321 347.194 476.971C348.013 482.982 351.017 523.416 352.109 539.536C352.382 543.087 355.658 545.819 359.208 545C367.399 543.361 382.689 539.536 404.258 529.7C435.384 515.493 444.667 425.061 445.213 419.324C445.759 413.313 445.486 409.762 428.558 408.942C411.357 408.123 388.695 406.757 377.501 402.385C370.675 399.926 362.484 395.282 363.849 394.735C369.037 393.369 412.449 392.823 447.943 372.605C487.26 349.929 498.455 323.155 498.455 323.155C498.455 323.155 518.386 309.494 527.669 294.741C535.314 282.72 511.014 287.638 511.014 287.638C511.014 287.638 529.853 278.622 548.147 263.869C564.802 250.208 529.034 252.121 529.034 252.121C529.034 252.121 545.962 248.023 561.252 227.532C579.818 202.943 553.334 216.604 544.597 216.604C555.245 207.588 568.897 192.835 574.904 181.36C581.73 168.519 579.545 153.219 572.447 158.957ZM201.122 273.431C197.572 273.977 194.569 271.519 194.023 267.967C193.477 264.415 195.934 261.41 199.483 260.863C203.033 260.317 206.036 262.776 206.582 266.328C207.128 269.879 204.671 273.158 201.122 273.431Z" fill="white"/>
</g>
<g filter="url(#filter0_d_245_3795)">
<circle cx="245.19" cy="109.19" r="17.1139" transform="rotate(-46.8466 245.19 109.19)" fill="url(#paint0_linear_245_3795)"/>
</g>
<g filter="url(#filter1_d_245_3795)">
<circle cx="639.454" cy="690.454" r="24.3752" transform="rotate(-46.8466 639.454 690.454)" fill="url(#paint1_linear_245_3795)"/>
</g>
<defs>
<filter id="filter0_d_245_3795" x="207.076" y="75.0764" width="76.2285" height="76.2278" filterUnits="userSpaceOnUse" color-interpolation-filters="sRGB">
<feFlood flood-opacity="0" result="BackgroundImageFix"/>
<feColorMatrix in="SourceAlpha" type="matrix" values="0 0 0 0 0 0 0 0 0 0 0 0 0 0 0 0 0 0 127 0" result="hardAlpha"/>
<feOffset dy="4"/>
<feGaussianBlur stdDeviation="10.5"/>
<feComposite in2="hardAlpha" operator="out"/>
<feColorMatrix type="matrix" values="0 0 0 0 0.94902 0 0 0 0 0.407843 0 0 0 0 0.215686 0 0 0 0.7 0"/>
<feBlend mode="normal" in2="BackgroundImageFix" result="effect1_dropShadow_245_3795"/>
<feBlend mode="normal" in="SourceGraphic" in2="effect1_dropShadow_245_3795" result="shape"/>
</filter>
<filter id="filter1_d_245_3795" x="594.078" y="649.078" width="90.75" height="90.7505" filterUnits="userSpaceOnUse" color-interpolation-filters="sRGB">
<feFlood flood-opacity="0" result="BackgroundImageFix"/>
<feColorMatrix in="SourceAlpha" type="matrix" values="0 0 0 0 0 0 0 0 0 0 0 0 0 0 0 0 0 0 127 0" result="hardAlpha"/>
<feOffset dy="4"/>
<feGaussianBlur stdDeviation="10.5"/>
<feComposite in2="hardAlpha" operator="out"/>
<feColorMatrix type="matrix" values="0 0 0 0 0.94902 0 0 0 0 0.407843 0 0 0 0 0.215686 0 0 0 0.7 0"/>
<feBlend mode="normal" in2="BackgroundImageFix" result="effect1_dropShadow_245_3795"/>
<feBlend mode="normal" in="SourceGraphic" in2="effect1_dropShadow_245_3795" result="shape"/>
</filter>
<linearGradient id="paint0_linear_245_3795" x1="234.922" y1="98.8364" x2="259.243" y2="117.499" gradientUnits="userSpaceOnUse">
<stop stop-color="#F26837"/>
<stop offset="1" stop-color="#FFBD12"/>
</linearGradient>
<linearGradient id="paint1_linear_245_3795" x1="624.829" y1="675.707" x2="659.47" y2="702.288" gradientUnits="userSpaceOnUse">
<stop stop-color="#F26837"/>
<stop offset="1" stop-color="#FFBD12"/>
</linearGradient>
<clipPath id="clip0_245_3795">
<rect width="406" height="465" fill="white" transform="translate(173 80)"/>
</clipPath>
</defs>
</svg>
