<svg width="34" height="34" viewBox="0 0 34 34" fill="none" xmlns="http://www.w3.org/2000/svg">
<path d="M21.345 10.0021C18.7831 10.8475 15.682 9.29757 12.9807 7.10888C13.4621 5.10479 13.7723 3.22952 13.8533 0.961144C13.8825 0.143039 14.8347 -0.291247 15.4722 0.220069C18.645 2.76668 20.8151 6.14668 21.345 10.0021Z" fill="#fb571c"/>
<path d="M3.71384 33.5567C2.57048 31.8417 1.72967 31.4873 0.0259932 24.1041C-0.128198 23.4359 0.42535 22.8117 1.11091 22.8907C4.57769 23.2914 7.61172 22.7155 10.1497 21.1784C4.33731 16.2592 3.26634 7.85929 4.24992 2.94655C4.42197 2.08701 5.54627 1.85346 6.0457 2.57521C9.13969 7.0461 17.8672 15.7364 24.0485 10.7557C26.2186 8.97728 28.2338 8.25459 30.0383 8.6078C31.873 8.96685 32.9424 10.2263 33.8472 11.7961C34.2011 12.3597 33.9123 13.1071 33.2702 13.2854C29.2287 14.4081 29.0648 15.1522 27.5584 19.7147C24.8067 28.0507 21.502 29.5784 14.8689 29.5029C12.6961 29.4781 10.8192 29.4568 9.34169 30.5402C7.96466 31.5435 6.60987 32.6377 5.16099 33.7851C4.70479 34.1462 4.03676 34.041 3.71384 33.5567Z" fill="#fb571c"/>
</svg>
